<svg width="362" height="179" viewBox="0 0 362 179" fill="none" xmlns="http://www.w3.org/2000/svg">
<g filter="url(#filter0_d_589_6418)">
<g clip-path="url(#clip0_589_6418)">
<path d="M71.6877 79.7895C71.8077 80.0946 71.9826 80.3586 72.202 80.5781C72.418 80.8043 72.6717 80.9963 72.946 81.1541C73.2237 81.3118 73.5152 81.4421 73.8203 81.5415C74.1323 81.6409 74.434 81.7198 74.7494 81.7781C75.4592 81.9118 76.2272 81.9701 77.0603 81.9495H80.9037C81.9323 81.9495 82.834 81.8123 83.6157 81.5346C84.394 81.2603 85.0489 80.8729 85.5906 80.3723C85.8409 80.1392 86.0672 79.9129 86.2557 79.6935C86.4477 79.4741 86.6089 79.2478 86.7426 79.0078C86.8694 78.7712 86.9723 78.5106 87.034 78.2226C87.0992 77.9415 87.1334 77.6123 87.1334 77.2318C87.1334 76.9815 87.0957 76.7106 87.0237 76.4192C86.9517 76.1312 86.818 75.8432 86.6363 75.5518C86.4546 75.2672 86.2077 74.9895 85.8992 74.7186C85.594 74.4478 85.2134 74.2146 84.7506 74.0089C84.2877 73.8066 83.7392 73.6386 83.1117 73.5152C82.4774 73.3918 81.7403 73.3266 80.9003 73.3266H71.6877V79.7929V79.7895ZM65.4546 110.417V67.8649H65.5334H81.3563C82.7689 67.8649 84.0409 68.0261 85.1792 68.3381C86.3174 68.6569 87.3323 69.0752 88.2134 69.5929C89.1014 70.1106 89.8592 70.7038 90.5003 71.3689C91.1414 72.0341 91.6694 72.7129 92.0774 73.4055C92.4923 74.0946 92.7906 74.7803 92.9894 75.4421C93.1849 76.1038 93.2843 76.7003 93.2843 77.2215C93.2843 77.9929 93.2157 78.7061 93.0889 79.3678C92.9586 80.0226 92.7597 80.6432 92.4957 81.2261C92.2317 81.8123 91.8992 82.3643 91.498 82.8889C91.0969 83.4169 90.6306 83.9278 90.0992 84.4249C88.7312 85.6695 87.0923 86.5266 85.1826 86.9895L85.1106 87.0135L93.946 98.9141H86.2489L79.834 89.7803C79.6043 89.3518 79.2786 88.9609 78.8569 88.6112C78.6649 88.4672 78.4557 88.3198 78.2123 88.1861C77.9723 88.0455 77.6912 87.9221 77.3757 87.8089C77.0569 87.7026 76.7003 87.6135 76.306 87.5449C75.9083 87.4763 75.4694 87.4421 74.986 87.4421H71.6843V105.493C77.9449 101.969 101.307 102.418 101.307 102.418H254.232C254.232 102.418 254.057 103.052 253.968 103.584C253.512 106.237 255.679 108.936 259.08 109.2C262.474 109.464 266.221 108.048 267.401 103.529C268.587 99.0066 263.664 94.0935 260.602 91.8032C257.533 89.5026 252.62 85.4603 252.62 80.1255C252.62 74.7906 254.849 71.6295 258.058 69.3975C260.883 67.4261 266.554 67.6695 266.554 67.6695L287.341 67.6112C287.341 67.6112 290.324 67.5941 290.585 67.5975C290.708 67.5975 290.832 67.5975 290.955 67.5975C294.079 67.5975 294.603 66.6341 294.819 66.1781C295.039 65.6981 295.138 65.4409 295.138 65.4409C295.138 65.4409 295.882 66.4626 296.05 67.1518C297.061 71.2421 295.632 72.9323 290.945 72.9323L284.04 72.9632V92.8078C284.04 93.5449 283.954 94.1895 283.786 94.7381C283.611 95.2832 283.399 95.7495 283.124 96.1403C282.85 96.5346 282.545 96.8569 282.192 97.1106C281.842 97.3643 281.485 97.5701 281.115 97.7243C280.258 98.0878 279.281 98.2523 278.194 98.2249V72.9769L266.554 72.9186C261.137 72.9186 259.642 75.4146 259.642 78.5689C259.642 81.7232 262.693 83.8695 265.09 85.6763C265.495 85.9815 265.882 86.2729 266.235 86.5541C268.652 88.4809 274.323 93.3598 274.323 101.41C274.323 101.746 274.22 102.377 274.22 102.377C274.22 102.377 274.649 102.425 275.18 102.425C275.712 102.425 283.272 102.312 283.978 101.263C284.239 100.868 284.245 100.659 284.245 100.659C284.245 100.659 284.221 101.417 284.139 101.921C283.217 107.513 275.273 107.948 273.696 107.948C273.483 107.948 273.346 107.941 273.308 107.935C273.199 107.921 273.109 107.914 273.037 107.914C272.893 107.914 272.821 107.935 272.821 107.935C272.821 107.935 272.691 108.25 272.503 108.538C272.465 108.593 272.417 108.672 272.365 108.768C271.728 109.875 269.962 113.273 262.344 113.441C254.722 113.609 252.901 109.066 252.85 108.641C252.795 108.212 252.74 107.935 252.74 107.935H83.818C78.8706 107.935 69.4729 108.233 65.458 110.41M228.007 81.2569C228.007 78.5072 228.785 76.3301 230.345 74.7221C231.109 73.8958 231.977 73.2786 232.954 72.8775C233.924 72.4729 235.004 72.2706 236.187 72.2706C238.529 72.2706 240.483 73.0866 242.043 74.7221C242.815 75.5312 243.397 76.4809 243.788 77.5678C244.179 78.6478 244.375 79.8821 244.375 81.2569V87.4352H230.191C230.191 88.1483 230.273 88.7723 230.441 89.2969C230.602 89.8249 230.821 90.2775 231.092 90.6615C231.363 91.0386 231.679 91.3541 232.028 91.6009C232.375 91.8478 232.731 92.0501 233.101 92.1906C233.962 92.5506 234.932 92.7152 236.023 92.6775L244.351 92.6569H244.371V98.1803H250.251V80.0432C250.251 76.4158 248.924 73.3198 246.284 70.7483C244.971 69.4729 243.476 68.5129 241.807 67.8718C240.137 67.2306 238.258 66.9049 236.184 66.9049C234.109 66.9049 232.234 67.2306 230.554 67.8718C228.877 68.5129 227.372 69.4729 226.045 70.7483C223.426 73.3129 222.123 76.4055 222.123 80.0432V98.1803H228V81.2535L228.007 81.2569ZM191.479 94.2203C193.117 95.7563 194.928 96.9049 196.909 97.6695C198.888 98.4375 201.075 98.8181 203.468 98.8181C206.18 98.8181 208.625 98.3552 210.781 97.4261C212.941 96.5038 214.841 95.0946 216.466 93.2158C217.748 91.7312 218.705 90.2226 219.343 88.6901C219.98 87.1609 220.296 85.5735 220.296 83.9346V79.8718H203.396C203.372 80.8832 203.557 81.7815 203.959 82.5735C204.13 82.9095 204.349 83.2421 204.627 83.5678C204.905 83.8866 205.255 84.1712 205.68 84.4249C206.101 84.6752 206.609 84.8809 207.195 85.0352C207.781 85.1895 208.471 85.2683 209.263 85.2683H214.093C213.463 87.8706 212.201 89.8832 210.308 91.2992C209.348 92.0363 208.299 92.5883 207.157 92.9518C206.016 93.3118 204.778 93.4935 203.441 93.4935C201.994 93.4935 200.647 93.2363 199.405 92.7221C198.161 92.2112 197.002 91.4363 195.922 90.4043C194.845 89.3689 194.043 88.2341 193.512 86.9998C192.977 85.7586 192.709 84.4112 192.709 82.9403C192.709 80.0089 193.779 77.5163 195.922 75.4729C198.065 73.4398 200.575 72.4215 203.441 72.4215C204.637 72.4215 205.745 72.5826 206.756 72.8946C207.768 73.2135 208.707 73.6901 209.575 74.3141C210.065 74.6432 210.545 74.8729 211.011 75.0203C211.481 75.1609 211.927 75.2398 212.359 75.2603C212.784 75.2809 213.199 75.2466 213.586 75.1609C213.977 75.0786 214.337 74.9655 214.669 74.8249C215.444 74.4958 216.164 74.0295 216.829 73.4055C215.965 72.3289 215.033 71.3963 214.032 70.6112C213.037 69.8261 211.971 69.1678 210.823 68.6466C208.522 67.6146 206.067 67.0935 203.461 67.0935C198.751 67.0935 194.78 68.6226 191.544 71.6706C188.252 74.7186 186.607 78.4763 186.607 82.9438C186.607 87.4112 188.232 91.1723 191.472 94.2272M186.709 95.5643C186.548 95.2283 186.336 94.9061 186.082 94.5872C185.821 94.2752 185.496 93.9872 185.115 93.7369C184.728 93.4832 184.275 93.2809 183.747 93.1335C183.219 92.9826 182.602 92.9072 181.906 92.9072H169.076V85.2889H176.427C177.428 85.2615 178.32 85.0523 179.112 84.6683C179.441 84.5072 179.767 84.2981 180.089 84.0409C180.411 83.7803 180.699 83.4615 180.949 83.0878C181.203 82.7106 181.405 82.2649 181.556 81.7438C181.714 81.2329 181.786 80.6329 181.786 79.9541H169.076V73.1209H181.135C182.287 73.1655 183.312 73.0078 184.217 72.6546C184.601 72.5106 184.978 72.3083 185.352 72.0546C185.722 71.8078 186.055 71.4855 186.346 71.1015C186.634 70.7141 186.871 70.2512 187.049 69.7129C187.224 69.1712 187.309 68.5369 187.309 67.8066H163.265V98.2283H187.309C187.289 97.2409 187.087 96.3529 186.709 95.5712M135.284 73.1243C136.505 73.1243 137.633 73.1243 138.675 73.1141H140.019C140.472 73.1141 140.904 73.1106 141.305 73.1106C141.709 73.1072 142.066 73.1072 142.378 73.1072H143.115C144.068 73.1072 144.936 73.2032 145.721 73.4123C146.506 73.6146 147.185 73.8409 147.764 74.0809C148.429 74.3655 149.036 74.6912 149.581 75.0409C150.353 75.6272 151.052 76.2855 151.663 77.0329C151.923 77.3449 152.18 77.7083 152.431 78.0923C152.681 78.4798 152.904 78.8946 153.099 79.3472C153.295 79.7998 153.452 80.2763 153.569 80.7838C153.689 81.2878 153.751 81.8158 153.751 82.3712C153.751 83.6981 153.593 84.8638 153.288 85.8683C152.983 86.8729 152.578 87.7472 152.074 88.4878C151.573 89.2283 151.001 89.8558 150.356 90.3632C149.712 90.8706 149.057 91.2889 148.388 91.6146C146.815 92.3826 145.028 92.8181 143.026 92.9106H137.403C137.403 93.6409 137.482 94.2752 137.643 94.8135C137.801 95.3518 138.013 95.8181 138.281 96.1986C138.548 96.5792 138.843 96.8981 139.176 97.1449C139.508 97.3952 139.855 97.5906 140.208 97.7415C141.027 98.0878 141.97 98.2352 143.026 98.1838C147.888 98.1152 151.861 96.5895 154.954 93.5998C157.975 90.7198 159.487 87.1746 159.487 82.9575C159.487 78.7403 158.002 75.2501 155.036 72.3632C153.456 70.8203 151.642 69.6786 149.595 68.9243C147.552 68.1769 145.255 67.7998 142.697 67.7998H129.456V98.2215H135.219L135.288 73.1278L135.284 73.1243ZM102.589 98.1838H96.7094V80.0466C96.7094 76.4123 98.0192 73.3163 100.635 70.7518C101.962 69.4763 103.464 68.5163 105.144 67.8752C106.82 67.2341 108.696 66.9083 110.77 66.9083C112.844 66.9083 114.72 67.2341 116.389 67.8752C118.063 68.5163 119.557 69.4763 120.871 70.7518C123.514 73.3198 124.834 76.4158 124.834 80.0466V98.1838H118.957V92.6603H118.937L110.609 92.6809C109.519 92.7186 108.545 92.5506 107.688 92.1941C107.317 92.0535 106.961 91.8478 106.611 91.6043C106.258 91.3575 105.953 91.0421 105.679 90.6649C105.408 90.2809 105.188 89.8283 105.024 89.3003C104.856 88.7758 104.777 88.1518 104.777 87.4386H118.957V81.2603C118.957 79.8855 118.762 78.6512 118.371 77.5712C117.98 76.4843 117.397 75.5346 116.623 74.7255C115.066 73.0901 113.115 72.2741 110.77 72.2741C109.584 72.2741 108.511 72.4763 107.533 72.8809C106.563 73.2855 105.689 73.8992 104.924 74.7255C103.364 76.3335 102.589 78.5106 102.589 81.2603V98.1872V98.1838Z" fill="white"/>
<path d="M81.5689 73.2991H71.722V73.3231H80.9038C81.7403 73.3231 82.4809 73.3848 83.1152 73.5116C83.7426 73.6351 84.2946 73.7996 84.754 74.0019C85.2169 74.2076 85.5975 74.4442 85.9026 74.7116C86.2078 74.9825 86.4546 75.2602 86.6398 75.5448C86.8215 75.8362 86.9518 76.1242 87.0272 76.4122C87.0992 76.7071 87.1369 76.9779 87.1369 77.2248C87.1369 77.6019 87.1026 77.9345 87.0409 78.2156C86.9792 78.5036 86.8729 78.7608 86.746 79.0008C86.6158 79.2442 86.4512 79.4671 86.2592 79.6899C86.0706 79.9094 85.8443 80.1356 85.594 80.3688C85.0523 80.8728 84.3975 81.2568 83.6192 81.5345C82.8375 81.8122 81.9358 81.9459 80.9072 81.9459H77.0672C76.9506 81.9494 76.8375 81.9494 76.7209 81.9494C76.018 81.9494 75.3598 81.8911 74.7529 81.7745C74.4409 81.7162 74.1358 81.6374 73.8238 81.5379C73.5186 81.4419 73.2272 81.3116 72.9495 81.1539C72.6752 80.9928 72.4215 80.8042 72.2055 80.5745C72.0032 80.3722 71.8386 80.1322 71.722 79.8614V80.5196L71.7666 80.6294C71.8832 80.9345 72.0512 81.2156 72.2603 81.4625C72.3769 81.5448 72.4969 81.6236 72.6272 81.6991C72.9495 81.8842 73.2855 82.0282 73.6283 82.1414C74.0055 82.2614 74.3243 82.3436 74.6363 82.3985C75.2809 82.5219 75.9838 82.5836 76.7243 82.5836C76.8409 82.5836 76.9609 82.5836 77.0775 82.5836H80.9038C81.9975 82.5836 82.9815 82.4294 83.8283 82.1311C84.6855 81.8259 85.4226 81.3905 86.0226 80.8316C86.3106 80.5676 86.5438 80.3276 86.7358 80.1048C86.9655 79.8374 87.1506 79.5768 87.298 79.3094C87.466 78.9939 87.5826 78.6751 87.6512 78.3528C87.7232 78.0236 87.7643 77.6431 87.7643 77.2282C87.7643 76.9299 87.7232 76.6042 87.634 76.2614C87.5483 75.9151 87.394 75.5654 87.1712 75.2122C87.0512 75.0202 86.9038 74.8351 86.7392 74.6499C86.434 74.4202 86.0843 74.2179 85.6729 74.0362C85.1723 73.8168 84.5758 73.6351 83.9003 73.5014C83.2283 73.3676 82.4432 73.2991 81.5655 73.2991" fill="white"/>
<path d="M295.138 65.4545C295.138 65.4545 295.042 65.7082 294.816 66.1916C294.6 66.6476 294.079 67.6111 290.955 67.6111C290.828 67.6111 290.708 67.6111 290.585 67.6111H290.424C289.741 67.6111 287.345 67.6248 287.345 67.6248L266.557 67.6831C266.557 67.6831 266.338 67.6728 265.961 67.6728C264.428 67.6728 260.331 67.8271 258.065 69.4111C254.856 71.6465 252.627 74.7939 252.627 80.1391C252.627 85.4842 257.54 89.5162 260.609 91.8168C263.352 93.8705 267.593 98.0293 267.589 102.126C267.589 102.6 267.535 103.073 267.411 103.539C266.321 107.715 263.047 109.241 259.875 109.241C259.611 109.241 259.351 109.227 259.09 109.21C256.213 108.987 254.215 107.019 253.947 104.811C253.923 105.963 254.311 107.101 255.068 108.072C255.171 108.205 255.281 108.332 255.394 108.456C256.395 109.241 257.667 109.734 259.045 109.841C259.323 109.861 259.604 109.872 259.879 109.872C263.976 109.872 267.02 107.561 268.028 103.697C269.088 99.6545 265.793 95.6259 263.293 93.2533C262.573 92.6156 261.977 92.1493 261.661 91.9128C260.564 91.0933 259.416 90.1779 258.353 89.1631C255.641 86.7493 253.268 83.7459 253.268 80.1322C253.268 75.6202 254.911 72.3768 258.435 69.9219C260.592 68.4168 264.744 68.2968 265.964 68.2968C266.321 68.2968 266.533 68.3071 266.54 68.3071H266.568L287.355 68.2488C287.355 68.2488 289.635 68.2351 290.383 68.2351C290.482 68.2351 290.554 68.2351 290.585 68.2351C290.715 68.2351 290.839 68.2351 290.969 68.2351C293.746 68.2351 294.754 67.5082 295.227 66.7745C295.33 66.9699 295.412 67.1619 295.447 67.3128C295.488 67.4773 295.525 67.6419 295.556 67.7996C295.693 67.6659 295.803 67.5288 295.892 67.3882C295.995 67.5871 296.077 67.7756 296.112 67.9265C296.242 68.4545 296.328 68.9379 296.369 69.3699V69.2911C296.365 68.6705 296.259 67.9608 296.064 67.1619C295.892 66.4728 295.152 65.4476 295.152 65.4476" fill="white"/>
<path d="M236.187 66.9117C234.116 66.9117 232.241 67.234 230.561 67.8786C228.884 68.5163 227.379 69.4797 226.052 70.7552C223.433 73.3197 222.127 76.4123 222.127 80.0466V98.1872H228.003V98.1632H223.426V97.5529H222.761V80.0466C222.761 76.5597 223.981 73.666 226.495 71.2112C227.753 70.0009 229.196 69.0752 230.784 68.4717C232.385 67.8615 234.205 67.5495 236.184 67.5495C238.162 67.5495 239.983 67.8615 241.58 68.4717C243.164 69.0786 244.597 70.0009 245.842 71.2112C245.856 71.2283 245.869 71.242 245.887 71.2557C246.099 71.434 246.305 71.626 246.507 71.8215C248.777 74.0226 250.032 76.6695 250.251 79.6935C250.165 76.2169 248.842 73.2409 246.284 70.7586C244.971 69.4832 243.476 68.5197 241.807 67.882C240.137 67.2375 238.261 66.9152 236.184 66.9152" fill="white"/>
<path d="M110.77 66.9117C108.696 66.9117 106.82 67.234 105.144 67.8786C103.464 68.5163 101.962 69.4797 100.635 70.7552C98.0192 73.3197 96.7129 76.4123 96.7129 80.0466V98.1872H102.589V98.1632H98.0123V97.5529H97.3472V80.0466C97.3472 76.5632 98.5677 73.6695 101.081 71.2077C102.343 69.9975 103.789 69.0752 105.373 68.4717C106.975 67.8615 108.792 67.5495 110.773 67.5495C112.755 67.5495 114.572 67.8615 116.167 68.4717C117.747 69.0752 119.18 69.9975 120.432 71.2112C120.452 71.2317 120.469 71.2489 120.487 71.266C120.696 71.4443 120.898 71.6295 121.097 71.8215C123.387 74.0466 124.615 76.6146 124.831 79.6523C124.738 76.1929 123.418 73.2306 120.874 70.7552C119.564 69.4797 118.069 68.5163 116.393 67.8786C114.723 67.234 112.851 66.9117 110.773 66.9117" fill="white"/>
<path d="M203.465 67.0866C198.754 67.0866 194.784 68.6123 191.547 71.6637C188.256 74.7083 186.61 78.466 186.61 82.9368C186.61 87.4077 188.239 91.162 191.475 94.2168C193.114 95.7563 194.924 96.9048 196.906 97.666C198.884 98.434 201.072 98.8111 203.465 98.8111C203.863 98.8111 204.257 98.8008 204.644 98.7837C204.473 98.7837 204.301 98.7871 204.13 98.7871C201.816 98.7871 199.69 98.4168 197.801 97.6831C195.898 96.946 194.139 95.8317 192.576 94.3608C192.514 94.3026 192.449 94.2408 192.387 94.1826C192.226 94.042 192.068 93.898 191.911 93.754C188.815 90.8363 187.244 87.1951 187.244 82.9368C187.244 78.6786 188.839 75.0374 191.979 72.1266C195.085 69.202 198.949 67.7208 203.465 67.7208C205.964 67.7208 208.354 68.2248 210.565 69.2157C211.635 69.7026 212.674 70.3368 213.641 71.1014C214.059 71.4306 214.471 71.7906 214.865 72.1746C215.41 72.6511 215.935 73.1723 216.439 73.7414C216.569 73.6317 216.703 73.5186 216.829 73.3986C215.965 72.322 215.033 71.3894 214.032 70.6008C213.037 69.8191 211.971 69.1608 210.823 68.6363C208.522 67.6043 206.067 67.0831 203.461 67.0831" fill="white"/>
<path d="M187.309 67.7997H163.265V98.2214H187.309C187.289 97.234 187.087 96.346 186.709 95.5643C186.548 95.2283 186.336 94.906 186.082 94.5871C185.821 94.2717 185.499 93.9871 185.115 93.7368C184.728 93.4831 184.279 93.2808 183.747 93.1334C183.219 92.9825 182.602 92.9071 181.909 92.9071H169.111V93.5414H181.909C182.547 93.5414 183.106 93.61 183.576 93.7437C184.032 93.874 184.436 94.0488 184.769 94.2683C185.091 94.4808 185.365 94.7208 185.588 94.9883C185.845 95.1768 186.072 95.3825 186.257 95.6088C186.487 95.8968 186.668 96.1745 186.802 96.4557C187.056 96.9803 187.217 97.5665 187.292 98.2008H164.561V97.5905H163.896V68.434H186.644C186.627 68.65 186.6 68.8557 186.559 69.0443H187.203C187.268 68.6637 187.303 68.2488 187.303 67.7997" fill="white"/>
<path d="M142.694 67.7997H129.452V98.2214H135.216V98.1974H130.748V97.5871H130.083V68.434H142.69C145.155 68.434 147.404 68.8008 149.369 69.5208C151.323 70.2374 153.079 71.3448 154.58 72.8088C154.81 73.0077 155.033 73.2134 155.252 73.4294C157.82 75.9254 159.236 78.9665 159.476 82.4808C159.363 78.514 157.882 75.1403 155.03 72.3631C153.449 70.8203 151.635 69.6785 149.585 68.9277C147.542 68.1803 145.244 67.8031 142.687 67.8031" fill="white"/>
<path d="M65.4546 67.8649V110.417C65.842 110.208 66.274 110.016 66.754 109.841V109.169C66.5243 109.248 66.3014 109.33 66.0889 109.419V68.5026H81.3563C82.7003 68.5026 83.9243 68.6534 85.0077 68.9517C86.0843 69.2534 87.0546 69.6546 87.8912 70.1449C88.6934 70.6146 89.4032 71.1597 89.9997 71.7632C90.2534 71.9757 90.4866 72.1917 90.7129 72.4214C91.3163 73.0489 91.8169 73.6969 92.2009 74.3414C92.578 74.9723 92.8626 75.61 93.0477 76.234C93.1643 76.6386 93.2432 77.0089 93.2843 77.3449V77.2214C93.2843 76.7003 93.1849 76.1072 92.9894 75.442C92.794 74.7803 92.4923 74.0946 92.0774 73.4054C91.666 72.7129 91.138 72.0374 90.5003 71.3689C89.8557 70.7037 89.098 70.114 88.21 69.5929C87.3289 69.0786 86.314 68.6569 85.1757 68.338C84.0409 68.026 82.7654 67.8649 81.3529 67.8649H65.4546Z" fill="white"/>
<path d="M236.852 72.2466C236.612 72.2466 236.372 72.2534 236.139 72.2706H236.184C238.529 72.2706 240.483 73.0866 242.04 74.722C242.811 75.5346 243.394 76.4843 243.785 77.5677C244.176 78.6512 244.371 79.882 244.371 81.2569V87.4352H230.191C230.191 88.1517 230.273 88.7723 230.437 89.3003C230.599 89.8283 230.821 90.2809 231.089 90.6649C231.363 91.042 231.675 91.3574 232.025 91.6043C232.371 91.8512 232.728 92.05 233.101 92.194C233.883 92.5197 234.761 92.6877 235.738 92.6877C235.831 92.6877 235.927 92.6877 236.019 92.6843L244.347 92.6637H244.368V98.1906H250.248V98.1666H245.664V97.5563H244.999V92.6397L236.677 92.6603C236.571 92.6603 236.482 92.6637 236.393 92.6637C235.515 92.6637 234.709 92.5129 234.007 92.218C233.684 92.098 233.379 91.93 233.053 91.6969C232.824 91.5392 232.618 91.3437 232.426 91.1106C232.412 91.1037 232.402 91.0934 232.388 91.0866C232.097 90.8843 231.833 90.6169 231.6 90.2912C231.363 89.962 231.178 89.5643 231.037 89.1117C230.941 88.8032 230.876 88.4569 230.845 88.066H245.002V81.2534C245.002 79.8169 244.789 78.5037 244.378 77.3517C243.96 76.1894 243.325 75.1574 242.496 74.2832C242.458 74.242 242.417 74.2009 242.376 74.1632C240.84 72.8912 238.985 72.2466 236.845 72.2466" fill="white"/>
<path d="M111.432 72.2466C111.195 72.2466 110.955 72.2534 110.722 72.2706H110.767C113.112 72.2706 115.063 73.0832 116.619 74.722C117.394 75.5312 117.98 76.4809 118.368 77.5677C118.759 78.6512 118.954 79.882 118.954 81.2569V87.4352H104.773C104.773 88.1517 104.852 88.7723 105.02 89.2969C105.181 89.8249 105.401 90.2809 105.675 90.6614C105.953 91.0386 106.258 91.3575 106.608 91.6009C106.961 91.8477 107.314 92.05 107.684 92.1906C108.466 92.5197 109.347 92.6843 110.324 92.6843C110.417 92.6843 110.513 92.6843 110.605 92.6809L118.933 92.6603H118.954V98.1837H124.831V98.1632H120.253V97.5529H119.592V92.6397L111.271 92.6603C111.164 92.6603 111.075 92.6637 110.986 92.6637C110.105 92.6637 109.299 92.5129 108.593 92.218C108.281 92.098 107.972 91.93 107.633 91.69C107.417 91.5357 107.215 91.3472 107.023 91.1175C107.002 91.1037 106.985 91.0935 106.968 91.0797C106.69 90.8809 106.429 90.6203 106.189 90.2877C105.956 89.962 105.768 89.5643 105.627 89.1083C105.531 88.8032 105.466 88.4535 105.432 88.0626H119.588V81.25C119.588 79.8032 119.376 78.49 118.961 77.3449C118.546 76.1826 117.912 75.1506 117.079 74.2763C117.041 74.2386 117.007 74.2009 116.965 74.1632C115.429 72.8877 113.571 72.2432 111.425 72.2432M204.106 72.394C203.849 72.394 203.595 72.4009 203.345 72.418H203.441C204.634 72.418 205.741 72.5792 206.753 72.8946C207.473 73.1175 208.152 73.4226 208.796 73.8032C208.495 73.4295 208.258 73.1037 207.607 72.9014C206.533 72.5654 205.354 72.3975 204.106 72.3975M267.216 72.898C266.904 72.898 266.602 72.9049 266.307 72.922C266.386 72.922 266.468 72.922 266.554 72.922L278.191 72.9803V98.2454C278.269 98.2454 278.345 98.2454 278.424 98.2454C278.794 98.2454 279.151 98.2215 279.493 98.1735V97.5323C279.277 97.5632 279.058 97.5872 278.828 97.5975V72.9563L267.219 72.898H267.216ZM291.905 72.922C291.809 72.922 291.709 72.922 291.607 72.922L284.067 72.9563V72.9769L290.941 72.946C291.277 72.946 291.603 72.9357 291.905 72.9186" fill="white"/>
<path d="M143.78 73.0831H143.043C142.728 73.0831 142.368 73.0831 141.963 73.0865H141.596C141.305 73.0865 141 73.0865 140.684 73.0865H139.34C138.363 73.0933 137.256 73.1002 135.949 73.1002H135.315V73.1242C136.525 73.1242 137.643 73.1208 138.675 73.1105H140.019C140.472 73.1105 140.904 73.1105 141.305 73.1071C141.709 73.1071 142.066 73.1071 142.378 73.1071H143.115C144.068 73.1071 144.932 73.2031 145.721 73.4088C146.506 73.6111 147.185 73.8373 147.764 74.0773C148.429 74.3653 149.036 74.6876 149.581 75.0373C150.353 75.6236 151.052 76.2853 151.663 77.0293C151.923 77.3413 152.18 77.7048 152.434 78.0888C152.681 78.4762 152.904 78.891 153.099 79.3436C153.295 79.7962 153.452 80.2728 153.569 80.7802C153.689 81.2842 153.751 81.8122 153.751 82.3676C153.751 83.6945 153.596 84.8602 153.288 85.8648C152.983 86.8693 152.578 87.7402 152.074 88.4842C151.573 89.2248 151.001 89.8522 150.356 90.3631C149.712 90.8705 149.057 91.2888 148.388 91.6145C146.818 92.3825 145.028 92.8179 143.026 92.9105H137.403C137.403 93.6408 137.482 94.275 137.643 94.8133C137.804 95.3516 138.013 95.8179 138.281 96.1985C138.548 96.579 138.843 96.8979 139.176 97.1448C139.508 97.3951 139.858 97.5905 140.208 97.7379C140.921 98.0396 141.723 98.1905 142.615 98.1905C142.748 98.1905 142.885 98.187 143.026 98.1768C143.304 98.1768 143.578 98.163 143.852 98.1493C143.797 98.1493 143.739 98.1493 143.681 98.1528H143.657C143.53 98.1562 143.403 98.163 143.28 98.163C142.477 98.163 141.751 98.0259 141.12 97.7585C140.804 97.6248 140.503 97.4533 140.225 97.2408C140.033 97.1002 139.851 96.9219 139.68 96.7162C139.639 96.6888 139.601 96.6613 139.56 96.6305C139.289 96.4282 139.035 96.1608 138.805 95.8282C138.579 95.5059 138.394 95.1013 138.253 94.6248C138.157 94.3093 138.096 93.9459 138.065 93.5379H143.057C145.131 93.4385 147.02 92.9825 148.666 92.1768C149.365 91.8339 150.068 91.3916 150.751 90.8568C151.447 90.3048 152.067 89.6225 152.602 88.8339C153.14 88.0453 153.576 87.1059 153.898 86.043C154.224 84.9802 154.388 83.7425 154.388 82.3608C154.388 81.7642 154.323 81.1779 154.189 80.6259C154.066 80.0876 153.895 79.5665 153.685 79.0831C153.483 78.6133 153.243 78.1608 152.972 77.7391C152.667 77.2728 152.41 76.9196 152.16 76.6179C151.879 76.2751 151.58 75.9493 151.261 75.6339C151.059 75.4625 150.85 75.2945 150.641 75.1333L150.624 75.1196L150.603 75.1059C150.02 74.7288 149.376 74.3893 148.69 74.0945C148.076 73.8339 147.36 73.6008 146.557 73.3916C145.724 73.1722 144.823 73.0693 143.791 73.0693M181.82 73.0899H169.104V73.1139H181.131C181.255 73.1173 181.378 73.1208 181.501 73.1208C181.731 73.1208 181.957 73.1139 182.177 73.0968H182.17C182.053 73.0968 181.937 73.0968 181.817 73.0899M210.449 74.8008C210.637 74.8865 210.826 74.9585 211.011 75.0168C211.481 75.1573 211.927 75.2396 212.359 75.2602C212.431 75.2602 212.506 75.2636 212.578 75.2636C212.749 75.2636 212.921 75.2533 213.089 75.2362C213.075 75.2362 213.061 75.2362 213.051 75.2362C212.671 75.2191 212.28 75.1505 211.858 75.0236C211.618 74.9482 210.997 74.8933 210.445 74.8042" fill="white"/>
<path d="M259.669 79.0934V79.1825C259.669 80.7768 260.496 81.8603 261.641 82.7654C260.616 81.6785 259.831 80.4614 259.669 79.09" fill="white"/>
<path d="M220.296 79.8717H203.396C203.396 79.9266 203.396 79.9814 203.396 80.0363C203.396 80.9791 203.585 81.826 203.966 82.57C204.137 82.906 204.356 83.2386 204.634 83.5609C204.912 83.8831 205.262 84.1643 205.687 84.418C206.108 84.6717 206.616 84.874 207.202 85.0283C207.788 85.186 208.478 85.2614 209.27 85.2614H214.1C213.47 87.8671 212.208 89.8763 210.319 91.2957C209.359 92.0329 208.31 92.5814 207.168 92.9483C206.023 93.3083 204.785 93.49 203.451 93.49C202.004 93.49 200.654 93.2329 199.416 92.7186C198.171 92.2077 197.012 91.4329 195.932 90.4009C194.856 89.3654 194.054 88.2306 193.522 86.9929C193.097 86.0054 192.843 84.9494 192.754 83.818C192.788 85.2649 193.073 86.6191 193.604 87.8534C194.15 89.1151 194.966 90.2911 196.039 91.3506C197.019 92.194 198.072 92.8454 199.172 93.3014C200.489 93.8431 201.926 94.1209 203.451 94.1209C204.843 94.1209 206.156 93.9254 207.36 93.5517C208.57 93.1643 209.695 92.5746 210.706 91.7929C212.705 90.298 214.056 88.1517 214.721 85.4089L214.762 85.234H209.938C209.204 85.234 208.563 85.1654 208.032 85.0249C207.504 84.8877 207.048 84.706 206.678 84.4831C206.307 84.2603 206.012 84.0203 205.783 83.7563C205.762 83.7323 205.742 83.7083 205.721 83.6843C205.484 83.5163 205.282 83.338 205.118 83.146C204.884 82.8717 204.692 82.5906 204.535 82.2786C204.267 81.7506 204.106 81.154 204.055 80.5026H219.668V81.1129H220.306V79.8683L220.296 79.8717Z" fill="white"/>
<path d="M181.783 79.9471H169.104V80.5814H181.124C181.104 80.8009 181.076 81.0031 181.039 81.1917H181.683C181.752 80.8146 181.783 80.3963 181.783 79.9471ZM176.839 85.2614H169.107V85.282H176.427C176.564 85.282 176.701 85.2717 176.839 85.2614Z" fill="white"/>
<path d="M85.2066 87.1437L84.7403 87.2911L93.3529 98.89H87.2466L86.818 98.2797H86.5815L80.3792 89.4477C80.2249 89.1666 80.0329 88.8957 79.8066 88.6454C79.594 88.4877 79.3952 88.3608 79.1929 88.2477C78.9323 88.0934 78.6135 87.9528 78.2569 87.826C77.9003 87.706 77.506 87.6066 77.0878 87.5346C76.6489 87.4591 76.186 87.4214 75.6615 87.4214H71.722V87.4454H74.9963C75.4763 87.4454 75.9152 87.4763 76.3129 87.5483C76.7072 87.6168 77.0672 87.706 77.3826 87.8123C77.698 87.9254 77.9792 88.0488 78.2192 88.186C78.4592 88.3231 78.6718 88.4706 78.8603 88.6111C79.2855 88.9643 79.6112 89.3483 79.8375 89.7803L86.2523 98.9106H93.9495L85.2066 87.1368V87.1437Z" fill="white"/>
<path d="M273.699 96.9254C274.018 98.17 274.217 99.4214 274.303 100.645C274.241 99.3151 274.025 98.074 273.699 96.9254Z" fill="white"/>
<path d="M284.239 100.663C284.239 100.663 284.232 100.872 283.971 101.266C283.265 102.315 275.705 102.428 275.174 102.428C274.803 102.428 274.478 102.404 274.32 102.391C274.299 102.569 274.275 102.761 274.251 102.884L274.231 103.018C274.392 103.032 274.752 103.063 275.177 103.063C275.564 103.063 277.563 103.028 279.559 102.874C281.527 102.72 282.692 102.521 283.409 102.295C283.33 102.593 283.227 102.874 283.104 103.138C283.399 103.083 283.649 103.025 283.865 102.967C283.982 102.641 284.074 102.298 284.136 101.928C284.218 101.424 284.242 100.666 284.242 100.666" fill="white"/>
<path d="M98.7289 102.408C92.4889 102.408 76.7312 102.696 71.7186 105.483V106.21L71.9998 106.049C76.9575 103.255 93.7129 103.039 98.7323 103.039C100.309 103.039 101.287 103.059 101.297 103.059H253.429C253.402 103.2 253.371 103.344 253.347 103.481C253.337 103.543 253.327 103.608 253.32 103.669H253.961C253.964 103.642 253.971 103.618 253.975 103.591C254.064 103.059 254.239 102.425 254.239 102.425H101.307C101.307 102.425 100.333 102.404 98.7289 102.404" fill="white"/>
<path d="M273.699 107.897C273.497 107.897 273.377 107.921 273.329 107.935H273.305C273.343 107.945 273.48 107.952 273.692 107.952C273.877 107.952 274.148 107.948 274.488 107.928C274.419 107.928 274.375 107.928 274.357 107.928C274.145 107.928 274.039 107.917 274.039 107.917C273.908 107.904 273.795 107.897 273.699 107.897ZM252.991 107.914H84.4798C83.1838 107.914 81.634 107.935 79.9712 108C81.4009 107.955 82.7175 107.938 83.818 107.938H252.737C252.737 107.938 252.792 108.216 252.847 108.644C252.847 108.665 252.853 108.689 252.864 108.727L252.991 107.914ZM256.673 112.45C257.979 113.036 259.697 113.455 261.936 113.455C262.066 113.455 262.203 113.455 262.34 113.451C262.553 113.448 262.759 113.437 262.961 113.431C262.841 113.431 262.724 113.431 262.608 113.431C260.119 113.431 258.168 113.005 256.676 112.453" fill="white"/>
<path d="M295.213 66.7848C294.737 67.5219 293.732 68.2454 290.955 68.2454C290.825 68.2454 290.701 68.2454 290.575 68.2454C290.544 68.2454 290.472 68.2454 290.372 68.2454C289.628 68.2454 287.345 68.2591 287.345 68.2591L266.557 68.3174H266.53C266.53 68.3174 266.311 68.3071 265.957 68.3071C264.737 68.3071 260.585 68.4271 258.428 69.9322C254.904 72.3836 253.261 75.6305 253.261 80.1425C253.261 83.7562 255.634 86.7596 258.349 89.1734C255.922 86.8694 253.927 84.0682 253.927 80.7528C253.927 76.2408 255.572 72.9974 259.093 70.5425C261.253 69.0374 265.405 68.9208 266.626 68.9208C266.979 68.9208 267.192 68.9276 267.199 68.9276H267.229L288.017 68.8728C288.017 68.8728 290.297 68.8591 291.044 68.8591H291.247C291.377 68.8591 291.5 68.8625 291.631 68.8625C293.883 68.8625 294.97 68.3825 295.556 67.8099C295.522 67.6522 295.484 67.4911 295.443 67.3231C295.405 67.1722 295.323 66.9836 295.224 66.7848M236.187 67.5459C234.209 67.5459 232.388 67.8579 230.784 68.4716C229.2 69.0751 227.756 70.0008 226.495 71.2111C223.985 73.6694 222.761 76.5596 222.761 80.0465V97.5494H223.426V80.6568C223.426 77.1665 224.647 74.2762 227.16 71.8179C228.421 70.6076 229.861 69.6854 231.449 69.0785C233.053 68.4682 234.871 68.1562 236.852 68.1562C238.834 68.1562 240.651 68.4682 242.249 69.0785C243.576 69.5859 244.796 70.3162 245.89 71.2522C245.876 71.2385 245.859 71.2214 245.845 71.2076C244.601 69.9974 243.168 69.0751 241.587 68.4682C239.993 67.8545 238.176 67.5425 236.191 67.5425M110.77 67.5459C108.788 67.5459 106.971 67.8579 105.37 68.4716C103.786 69.0751 102.343 69.9974 101.077 71.2076C98.5677 73.6694 97.3437 76.5631 97.3437 80.0465V97.5494H98.0089V80.6568C98.0089 77.1699 99.2294 74.2762 101.739 71.8179C103.001 70.6076 104.448 69.6819 106.032 69.0785C107.633 68.4682 109.45 68.1562 111.432 68.1562C113.413 68.1562 115.231 68.4682 116.825 69.0785C118.155 69.5894 119.383 70.3196 120.483 71.2625C120.463 71.2419 120.445 71.2248 120.428 71.2076C119.177 69.9939 117.744 69.0716 116.163 68.4682C114.569 67.8545 112.755 67.5425 110.773 67.5425M203.465 67.7242C198.946 67.7242 195.082 69.2054 191.979 72.1334C188.835 75.0442 187.244 78.6785 187.244 82.9436C187.244 87.2088 188.815 90.8431 191.911 93.7608C192.068 93.9048 192.226 94.0488 192.387 94.1894C189.415 91.3025 187.909 87.7231 187.909 83.5505C187.909 79.3779 189.504 75.6511 192.644 72.7436C195.747 69.8191 199.611 68.3345 204.13 68.3345C206.629 68.3345 209.016 68.8385 211.231 69.8294C212.3 70.3162 213.336 70.9505 214.306 71.7151C214.495 71.8625 214.683 72.0202 214.868 72.1779C214.474 71.7905 214.063 71.4339 213.644 71.1014C212.674 70.3402 211.639 69.7059 210.569 69.2191C208.357 68.2248 205.968 67.7208 203.468 67.7208M186.648 68.4339H163.899V97.5836H164.561V69.0442H186.562C186.6 68.8556 186.627 68.6499 186.648 68.4339ZM142.693 68.4339H130.087V97.5836H130.752V69.0442H143.359C145.824 69.0442 148.069 69.4111 150.037 70.1311C151.707 70.7414 153.233 71.6431 154.58 72.8054C153.079 71.3414 151.323 70.2374 149.372 69.5208C147.404 68.8008 145.155 68.4339 142.693 68.4339ZM81.3563 68.4991H66.0889V109.419C66.3014 109.333 66.5243 109.248 66.754 109.169V69.1128H82.018C83.362 69.1128 84.5894 69.2636 85.6729 69.5619C86.7494 69.8636 87.7197 70.2648 88.5563 70.7551C89.0774 71.0602 89.5609 71.3996 89.9963 71.7665C89.4032 71.1631 88.6934 70.6145 87.8912 70.1482C87.0546 69.6579 86.0809 69.2568 85.0077 68.9551C83.9243 68.6568 82.6969 68.5025 81.3563 68.5025M278.825 72.9562V97.6008C279.055 97.5871 279.274 97.5665 279.49 97.5356V72.9596H278.825V72.9562ZM242.386 74.1631C242.424 74.2008 242.465 74.2419 242.506 74.2831C243.336 75.1539 243.97 76.1894 244.388 77.3516C244.8 78.5036 245.012 79.8168 245.012 81.2534V88.0659H230.856C230.887 88.4534 230.952 88.8031 231.048 89.1116C231.185 89.5608 231.377 89.9619 231.61 90.2911C231.84 90.6099 232.104 90.8774 232.395 91.0831C232.409 91.0934 232.419 91.1002 232.433 91.1105C232.378 91.0454 232.323 90.9734 232.272 90.9048C232.039 90.5722 231.85 90.1745 231.709 89.7254C231.613 89.4168 231.548 89.0671 231.514 88.6796H245.671V81.8671C245.671 80.4305 245.458 79.1174 245.047 77.9654C244.628 76.8031 243.994 75.7711 243.161 74.8968C242.911 74.6362 242.65 74.3894 242.379 74.1665M116.972 74.1665C117.01 74.2042 117.048 74.2454 117.085 74.2796C117.919 75.1539 118.553 76.1859 118.968 77.3482C119.383 78.4934 119.592 79.8065 119.592 81.2534V88.0659H105.435C105.466 88.4568 105.531 88.8065 105.631 89.1116C105.768 89.5642 105.96 89.9654 106.193 90.2911C106.433 90.6236 106.69 90.8842 106.971 91.0831C106.992 91.0968 107.009 91.1071 107.026 91.1208C106.968 91.0522 106.913 90.9802 106.858 90.9048C106.625 90.5791 106.436 90.1814 106.296 89.7254C106.2 89.4202 106.135 89.0705 106.1 88.6796H120.257V81.8671C120.257 80.4236 120.044 79.1071 119.633 77.9619C119.215 76.7996 118.58 75.7676 117.747 74.8934C117.5 74.6328 117.243 74.3894 116.972 74.1665ZM86.7392 74.6499C86.9037 74.8316 87.0512 75.0202 87.1712 75.2088C87.394 75.5619 87.5483 75.9151 87.634 76.2614C87.7197 76.6042 87.7643 76.9265 87.7643 77.2282C87.7643 77.6431 87.7266 78.0236 87.6512 78.3528C87.5792 78.6751 87.4626 78.9939 87.298 79.3059C87.1472 79.5768 86.9654 79.8374 86.7357 80.1014C86.5437 80.3276 86.3106 80.5642 86.0226 80.8316C85.4226 81.3905 84.6854 81.8259 83.8283 82.1311C82.9849 82.4294 82.0009 82.5836 80.9037 82.5836H77.0774C76.9574 82.5836 76.8409 82.5836 76.7243 82.5836C75.9837 82.5836 75.2809 82.5219 74.6363 82.3985C74.3243 82.3436 74.0054 82.2614 73.6283 82.1414C73.2854 82.0282 72.9494 81.8808 72.6272 81.6991C72.4969 81.6236 72.3769 81.5448 72.2603 81.4625C72.3083 81.5208 72.3632 81.5756 72.418 81.6339C72.6546 81.8808 72.9494 82.1139 73.2923 82.3128C73.6146 82.4945 73.9472 82.6419 74.2934 82.7516C74.6706 82.8716 74.9894 82.9539 75.3014 83.0088C75.946 83.1322 76.6454 83.1974 77.386 83.1974C77.5026 83.1974 77.6226 83.1974 77.7426 83.1939H81.5689C82.6626 83.1939 83.6466 83.0431 84.4934 82.7414C85.3506 82.4362 86.0877 82.0042 86.6877 81.4454C86.9757 81.1779 87.2089 80.9379 87.4009 80.7151C87.6306 80.4511 87.8123 80.1871 87.9632 79.9196C88.1312 79.6076 88.2512 79.2854 88.3163 78.9665C88.3917 78.6374 88.4294 78.2568 88.4294 77.8385C88.4294 77.5402 88.3849 77.2145 88.2992 76.8716C88.21 76.5254 88.0557 76.1756 87.8363 75.8225C87.6203 75.4865 87.3323 75.1608 86.9826 74.8522C86.9037 74.7802 86.8214 74.7151 86.7357 74.6534M151.251 75.6442C151.57 75.9562 151.872 76.2888 152.153 76.6282C152.407 76.9299 152.664 77.2865 152.965 77.7494C153.236 78.1711 153.476 78.6271 153.679 79.0934C153.891 79.5802 154.059 80.0979 154.183 80.6362C154.316 81.1882 154.381 81.7745 154.381 82.3711C154.381 83.7494 154.217 84.9905 153.891 86.0534C153.569 87.1128 153.133 88.0522 152.595 88.8408C152.06 89.6294 151.44 90.3116 150.744 90.8636C150.061 91.4019 149.359 91.8442 148.659 92.1836C147.013 92.9859 145.124 93.4454 143.05 93.5448H138.058C138.089 93.9562 138.154 94.3162 138.247 94.6351C138.387 95.1116 138.572 95.5162 138.799 95.8385C139.028 96.1676 139.282 96.4385 139.553 96.6408C139.591 96.6682 139.632 96.6991 139.673 96.7265C139.601 96.6408 139.529 96.5482 139.46 96.4488C139.237 96.1299 139.052 95.7219 138.912 95.2454C138.816 94.9299 138.751 94.5665 138.72 94.1585H143.715C145.789 94.0591 147.675 93.5996 149.324 92.7974C150.024 92.4545 150.723 92.0122 151.405 91.4739C152.101 90.9219 152.725 90.2431 153.257 89.4545C153.795 88.6625 154.231 87.7265 154.553 86.6636C154.879 85.6008 155.047 84.3631 155.047 82.9814C155.047 82.3848 154.978 81.8019 154.848 81.2465C154.724 80.7082 154.553 80.1871 154.344 79.7036C154.141 79.2339 153.901 78.7848 153.631 78.3596C153.325 77.8968 153.068 77.5402 152.815 77.2385C152.345 76.6694 151.82 76.1345 151.251 75.6442ZM219.658 80.5025H204.044C204.092 81.1574 204.257 81.7539 204.524 82.2819C204.682 82.5905 204.874 82.8751 205.107 83.1459C205.275 83.3379 205.474 83.5162 205.711 83.6842C205.508 83.4339 205.333 83.1734 205.189 82.8922C204.925 82.3642 204.761 81.7711 204.709 81.1162H219.658V80.5059V80.5025ZM181.124 80.5814H169.107V81.1916H181.042C181.08 81.0031 181.111 80.7974 181.128 80.5814M215.564 85.2374H214.752L214.711 85.4122C214.049 88.1551 212.691 90.3014 210.696 91.7962C209.684 92.5745 208.56 93.1676 207.346 93.5516C206.143 93.9288 204.829 94.1208 203.437 94.1208C201.915 94.1208 200.475 93.8465 199.162 93.3048C198.058 92.8488 197.005 92.1939 196.025 91.3505C196.063 91.3882 196.104 91.4294 196.145 91.4671C197.28 92.5471 198.514 93.3734 199.827 93.9151C201.14 94.4568 202.58 94.7345 204.103 94.7345C205.495 94.7345 206.811 94.5391 208.011 94.1654C209.221 93.7779 210.349 93.1882 211.361 92.4065C213.356 90.9116 214.711 88.7654 215.372 86.0225L215.561 85.2374H215.564ZM79.8066 88.6488C80.0329 88.9025 80.2249 89.1699 80.3757 89.4511L86.578 98.2831H86.8146L81.0409 90.0614C80.7803 89.5745 80.4032 89.1322 79.9266 88.7345L79.906 88.7208C79.8717 88.6934 79.8374 88.6694 79.8066 88.6454M245.677 92.6396H245.012V97.5528H245.677V92.6396ZM120.253 92.6396H119.588V97.5528H120.253V92.6396ZM263.283 93.2568C265.786 95.6259 269.077 99.6579 268.018 103.7C267.01 107.568 263.965 109.875 259.872 109.875C259.594 109.875 259.316 109.865 259.035 109.844C257.657 109.738 256.388 109.244 255.387 108.459C256.453 109.604 257.996 110.324 259.7 110.455C259.978 110.475 260.259 110.489 260.537 110.489C264.627 110.489 267.675 108.178 268.683 104.314C269.839 99.8979 265.807 95.5025 263.283 93.2602M181.903 93.5379H169.104V94.1482H182.568C183.205 94.1482 183.764 94.2168 184.234 94.3505C184.69 94.4808 185.095 94.6556 185.427 94.8785C185.482 94.9128 185.53 94.9505 185.585 94.9848C185.362 94.7174 185.084 94.4774 184.762 94.2648C184.426 94.0454 184.025 93.8671 183.569 93.7402C183.099 93.6065 182.54 93.5379 181.899 93.5379M283.405 102.291C282.692 102.517 281.523 102.72 279.555 102.871C277.556 103.028 275.561 103.059 275.173 103.059C274.752 103.059 274.388 103.032 274.227 103.018L274.138 103.543L274.803 103.618C274.824 103.618 275.276 103.673 275.839 103.673C276.226 103.673 278.225 103.639 280.22 103.484C281.475 103.388 282.404 103.268 283.1 103.138C283.224 102.871 283.327 102.593 283.405 102.291ZM98.7323 103.045C93.7163 103.045 76.9609 103.261 72.0032 106.056L71.722 106.213V107.201L72.6683 106.669C77.626 103.875 94.3814 103.656 99.4009 103.656C100.978 103.656 101.955 103.676 101.965 103.676H253.323C253.33 103.615 253.34 103.549 253.351 103.488C253.375 103.351 253.405 103.207 253.436 103.066H101.297C101.297 103.066 100.309 103.049 98.7323 103.049" fill="white"/>
<path d="M295.875 67.3951C295.786 67.5323 295.68 67.6729 295.543 67.8066C294.96 68.3791 293.869 68.8591 291.617 68.8591C291.487 68.8591 291.363 68.8591 291.236 68.8557H291.031C290.287 68.8557 288.007 68.8694 288.003 68.8694L267.216 68.9277H267.185C267.185 68.9277 266.965 68.9174 266.612 68.9174C265.392 68.9174 261.24 69.034 259.083 70.5391C255.559 72.994 253.916 76.2374 253.916 80.7494C253.916 84.0683 255.908 86.8694 258.336 89.1734C259.399 90.1849 260.547 91.1003 261.644 91.9231C261.963 92.1597 262.56 92.6226 263.28 93.2603C265.8 95.5026 269.835 99.9014 268.68 104.314C267.672 108.181 264.627 110.489 260.533 110.489C260.256 110.489 259.978 110.475 259.697 110.458C257.993 110.324 256.45 109.604 255.384 108.459C255.271 108.339 255.161 108.209 255.058 108.079C254.297 107.105 253.913 105.967 253.937 104.815C253.916 104.647 253.906 104.479 253.906 104.311C253.906 104.098 253.92 103.889 253.954 103.673H101.962C101.962 103.673 100.975 103.652 99.394 103.652C94.378 103.652 77.6226 103.872 72.6649 106.666L71.7186 107.197V105.487C71.7186 105.487 71.698 105.497 71.6877 105.504V87.4523H71.7186V87.4283H75.6546C76.1757 87.4283 76.642 87.466 77.0809 87.5414C77.5026 87.6134 77.8935 87.7129 78.25 87.8329C78.6066 87.9597 78.9289 88.1003 79.186 88.2546C79.3883 88.3677 79.5872 88.4946 79.7997 88.6523C79.834 88.6763 79.8683 88.7003 79.9026 88.7277L79.9232 88.7449C80.4032 89.1391 80.7769 89.5849 81.0375 90.0683L86.8112 98.29L87.2397 98.9003H93.346L84.73 87.3014L85.1997 87.154L85.1037 87.0271L85.1757 87.0031C87.0855 86.5403 88.7277 85.6866 90.0923 84.442C90.6237 83.9414 91.09 83.4306 91.4946 82.906C91.8923 82.3814 92.2249 81.826 92.4889 81.2431C92.7529 80.6603 92.9517 80.0397 93.0855 79.3849C93.2055 78.7574 93.274 78.0854 93.2809 77.3586C93.2397 77.0226 93.1609 76.6489 93.0443 76.2477C92.8557 75.6203 92.5746 74.986 92.1975 74.3551C91.8135 73.7106 91.3095 73.0626 90.7095 72.4351C90.49 72.2054 90.25 71.986 89.9963 71.7734C89.5609 71.4066 89.0775 71.0706 88.5529 70.762C87.7163 70.2751 86.7426 69.874 85.6695 69.5723C84.586 69.2706 83.3586 69.1197 82.018 69.1197H66.754V109.848C70.138 108.596 75.5826 108.154 79.9746 108.01C81.634 107.945 83.1872 107.924 84.4832 107.924H252.991L252.864 108.737C253.001 109.231 253.927 111.226 256.673 112.46C258.161 113.012 260.115 113.441 262.604 113.441C262.721 113.441 262.841 113.441 262.957 113.437C270.055 113.105 271.745 109.861 272.362 108.785C272.41 108.689 272.461 108.61 272.496 108.555C272.684 108.267 272.815 107.948 272.815 107.948C272.815 107.948 272.887 107.931 273.034 107.931C273.106 107.931 273.195 107.935 273.305 107.948H273.332C273.377 107.931 273.5 107.907 273.703 107.907C273.799 107.907 273.915 107.914 274.042 107.928C274.042 107.928 274.145 107.938 274.361 107.938C274.381 107.938 274.423 107.938 274.491 107.938C276.847 107.801 282.404 107.005 283.865 102.977C283.649 103.035 283.395 103.093 283.104 103.148C282.408 103.279 281.479 103.395 280.22 103.495C278.225 103.649 276.226 103.683 275.839 103.683C275.276 103.683 274.824 103.632 274.803 103.628L274.141 103.556L274.231 103.028L274.251 102.895C274.272 102.771 274.299 102.579 274.32 102.401C274.251 102.397 274.213 102.391 274.213 102.391C274.213 102.391 274.316 101.763 274.316 101.424C274.316 101.163 274.313 100.909 274.299 100.656C274.213 99.4317 274.018 98.1803 273.696 96.9357C272.16 91.522 268.159 88.1037 266.228 86.5643C265.875 86.2866 265.488 85.9951 265.083 85.69C263.948 84.8363 262.673 83.8729 261.637 82.7757C260.492 81.8706 259.666 80.7837 259.666 79.1929V79.1037C259.645 78.9323 259.635 78.7574 259.635 78.5826C259.635 75.4729 261.085 73.0077 266.307 72.9357C266.602 72.9186 266.904 72.9117 267.219 72.9117L278.828 72.9666H279.493V98.1871C280.073 98.1083 280.615 97.9677 281.112 97.7551C281.482 97.6009 281.839 97.3951 282.188 97.1414C282.541 96.8877 282.847 96.562 283.124 96.1711C283.395 95.7769 283.611 95.3106 283.786 94.7689C283.957 94.2169 284.04 93.5757 284.04 92.8386V72.9803H284.071V72.9597L291.61 72.9254C291.713 72.9254 291.812 72.9254 291.908 72.9254C294.96 72.7471 296.341 71.6603 296.359 69.394V69.3803C296.317 68.9449 296.228 68.4649 296.098 67.9369C296.064 67.7894 295.981 67.6009 295.879 67.402M71.7186 73.3231V73.2991H81.5655C82.4432 73.2991 83.2249 73.3677 83.9003 73.5014C84.5757 73.6351 85.1723 73.8134 85.6729 74.0363C86.0843 74.218 86.434 74.4237 86.7392 74.65C86.8249 74.7117 86.9072 74.7803 86.986 74.8489C87.3357 75.1609 87.6237 75.4831 87.8397 75.8191C88.0592 76.1723 88.2169 76.5254 88.306 76.8717C88.3917 77.2111 88.4329 77.5369 88.4329 77.8351C88.4329 78.2534 88.3952 78.634 88.3197 78.9631C88.2477 79.282 88.1312 79.6043 87.9632 79.9163C87.8192 80.1871 87.634 80.4477 87.4043 80.7117C87.2089 80.938 86.9757 81.1746 86.6877 81.442C86.0877 82.0009 85.3506 82.4363 84.4935 82.7414C83.65 83.0397 82.666 83.1906 81.5689 83.1906H77.7426C77.6226 83.194 77.506 83.194 77.386 83.194C76.6489 83.194 75.9426 83.1323 75.3015 83.0054C74.9895 82.9506 74.6706 82.8683 74.2935 82.7483C73.9506 82.6386 73.6146 82.4911 73.2957 82.3094C72.9529 82.1106 72.658 81.8809 72.418 81.6306C72.3632 81.5757 72.3117 81.5174 72.2603 81.4591C72.0512 81.2123 71.8832 80.9311 71.7666 80.626L71.722 80.5163V79.858C71.7117 79.834 71.7015 79.81 71.6912 79.7826V73.3197H71.722L71.7186 73.3231Z" fill="white"/>
<path d="M187.21 69.0443H164.564V98.1975H187.296C187.22 97.5597 187.059 96.9735 186.805 96.4489C186.668 96.1712 186.487 95.8866 186.26 95.602C186.072 95.3757 185.849 95.17 185.592 94.9815C185.54 94.9437 185.489 94.9095 185.437 94.8752C185.101 94.6557 184.7 94.4809 184.244 94.3506C183.775 94.2169 183.216 94.1483 182.575 94.1483H169.114V92.9037H169.083V85.2855H169.114V85.2649H176.842C177.679 85.1929 178.436 84.994 179.112 84.6649C179.441 84.5037 179.767 84.2946 180.089 84.0375C180.408 83.7769 180.699 83.458 180.949 83.0843C181.203 82.7072 181.405 82.2615 181.556 81.7403C181.611 81.5689 181.652 81.3872 181.687 81.1952H169.107V79.9506H169.076V73.1175H169.107V73.0935H181.824C181.94 73.0969 182.06 73.1003 182.173 73.1003H182.184C182.921 73.0455 183.596 72.8946 184.213 72.6546C184.601 72.5072 184.975 72.3083 185.348 72.0546C185.719 71.8043 186.051 71.4855 186.343 71.098C186.631 70.7106 186.867 70.2477 187.045 69.7095C187.114 69.5037 187.165 69.2809 187.207 69.0477" fill="white"/>
<path d="M236.852 68.1563C234.874 68.1563 233.053 68.4683 231.452 69.0785C229.865 69.6854 228.421 70.6077 227.163 71.818C224.65 74.2763 223.429 77.17 223.429 80.6568V98.1597H228.007V81.2534C228.007 78.5037 228.785 76.33 230.345 74.7185C231.109 73.8957 231.98 73.2751 232.957 72.874C233.914 72.4763 234.977 72.2705 236.143 72.2671C236.376 72.25 236.612 72.2431 236.856 72.2431C238.995 72.2431 240.85 72.8877 242.386 74.1597C242.657 74.3825 242.917 74.6294 243.171 74.89C244.001 75.7643 244.635 76.7963 245.053 77.962C245.465 79.1105 245.677 80.4237 245.677 81.8637V88.6763H231.521C231.555 89.0637 231.62 89.4134 231.716 89.722C231.853 90.1711 232.045 90.5688 232.279 90.9014C232.33 90.9734 232.381 91.042 232.436 91.1071C232.628 91.3368 232.837 91.5357 233.064 91.6934C233.393 91.9265 233.695 92.0945 234.017 92.2145C234.72 92.5094 235.525 92.6603 236.403 92.6603C236.492 92.6603 236.581 92.6603 236.688 92.6568L245.009 92.6363H245.674V98.1597H250.258V80.0431C250.258 79.9231 250.258 79.8065 250.255 79.69C250.035 76.666 248.78 74.0225 246.514 71.818C246.308 71.6225 246.103 71.4305 245.893 71.2523C244.8 70.3163 243.579 69.5825 242.252 69.0751C240.658 68.4648 238.841 68.1528 236.856 68.1528" fill="white"/>
<path d="M111.432 68.1562C109.45 68.1562 107.633 68.4682 106.032 69.0785C104.448 69.682 103.004 70.6077 101.739 71.818C99.2295 74.2797 98.0055 77.17 98.0055 80.6568V98.1597H102.586V81.2534C102.586 78.5037 103.361 76.33 104.921 74.7185C105.682 73.8957 106.56 73.2751 107.53 72.874C108.493 72.4762 109.556 72.2705 110.719 72.2671C110.952 72.25 111.188 72.2431 111.432 72.2431C113.575 72.2431 115.433 72.8877 116.972 74.1665C117.24 74.386 117.497 74.6294 117.747 74.89C118.58 75.7642 119.215 76.7963 119.629 77.9585C120.044 79.1003 120.257 80.4168 120.257 81.8637V88.6763H106.1C106.135 89.0671 106.196 89.4134 106.296 89.722C106.436 90.178 106.625 90.5757 106.858 90.9014C106.913 90.9768 106.971 91.0488 107.029 91.1208C107.218 91.3505 107.42 91.5425 107.64 91.6934C107.979 91.93 108.288 92.098 108.6 92.218C109.303 92.5128 110.108 92.6637 110.989 92.6637C111.079 92.6637 111.168 92.6637 111.277 92.6603L119.599 92.6397H120.264V98.1631H124.837V80.0465C124.837 79.9163 124.837 79.786 124.834 79.6523C124.615 76.6145 123.391 74.0465 121.1 71.8214C120.901 71.6294 120.696 71.4443 120.49 71.266C119.389 70.3231 118.162 69.5894 116.832 69.082C115.237 68.4717 113.424 68.1597 111.442 68.1597" fill="white"/>
<path d="M204.13 68.3346C199.611 68.3346 195.747 69.8157 192.644 72.7437C189.5 75.6512 187.91 79.2889 187.91 83.5506C187.91 87.8123 189.415 91.3026 192.387 94.1895C192.449 94.2512 192.514 94.3095 192.576 94.3678C194.139 95.8386 195.902 96.9529 197.801 97.69C199.687 98.4203 201.816 98.794 204.13 98.794C204.302 98.794 204.476 98.794 204.644 98.7906C206.89 98.674 208.937 98.2215 210.778 97.4295C212.938 96.5037 214.838 95.098 216.463 93.2192C217.745 91.7346 218.702 90.226 219.339 88.6935C219.974 87.1643 220.292 85.5769 220.292 83.9346V81.1163H204.706C204.761 81.7712 204.919 82.3677 205.186 82.8923C205.33 83.1735 205.502 83.4375 205.707 83.6843C205.728 83.7083 205.745 83.7357 205.769 83.7597C205.999 84.0237 206.294 84.2637 206.664 84.4866C207.034 84.706 207.494 84.8912 208.018 85.0317C208.55 85.1689 209.191 85.2409 209.921 85.2409H215.558L215.369 86.026C214.707 88.7689 213.353 90.9152 211.358 92.41C210.346 93.1917 209.222 93.7815 208.008 94.1689C206.808 94.546 205.491 94.738 204.103 94.738C202.577 94.738 201.137 94.4603 199.824 93.9186C198.514 93.3769 197.273 92.554 196.142 91.4706C196.104 91.4329 196.063 91.3952 196.022 91.3575C194.952 90.2946 194.132 89.122 193.587 87.8603C193.056 86.626 192.768 85.2683 192.737 83.8249C192.716 83.5369 192.706 83.2386 192.706 82.9403C192.706 80.0055 193.776 77.5163 195.915 75.4729C198.034 73.4603 200.513 72.4386 203.338 72.418C203.592 72.4043 203.842 72.3975 204.099 72.3975C205.351 72.3975 206.527 72.5689 207.6 72.9015C208.255 73.1072 208.488 73.4295 208.79 73.8066C209.054 73.9609 209.311 74.1289 209.564 74.3106C209.859 74.5095 210.151 74.674 210.439 74.8009C210.991 74.8935 211.608 74.9449 211.851 75.0203C212.273 75.1472 212.664 75.2157 213.044 75.2329C213.058 75.2329 213.072 75.2329 213.082 75.2329C213.254 75.2157 213.418 75.1883 213.579 75.154C213.97 75.0683 214.33 74.9586 214.663 74.818C215.29 74.554 215.88 74.194 216.432 73.7415C215.928 73.1723 215.403 72.6477 214.858 72.1746C214.673 72.0135 214.488 71.8592 214.296 71.7117C213.326 70.9506 212.29 70.3163 211.22 69.8295C209.006 68.8352 206.619 68.3312 204.12 68.3312" fill="white"/>
<path d="M143.359 69.0443H130.752V98.1975H135.219L135.288 73.1243H135.319V73.1037H135.953C137.259 73.1037 138.37 73.1003 139.344 73.09H140.688C141.003 73.09 141.308 73.09 141.6 73.09H141.967C142.371 73.0866 142.731 73.0866 143.047 73.0866H143.784C144.812 73.0866 145.717 73.1895 146.551 73.4089C147.353 73.6146 148.069 73.8512 148.683 74.1117C149.369 74.4066 150.013 74.746 150.596 75.1232L150.617 75.1369L150.634 75.1506C150.847 75.3117 151.056 75.4797 151.255 75.6512C151.824 76.138 152.348 76.6729 152.815 77.2455C153.068 77.5472 153.325 77.9037 153.631 78.3666C153.901 78.7883 154.141 79.2443 154.344 79.7106C154.556 80.1975 154.724 80.7152 154.848 81.2535C154.978 81.8055 155.047 82.3883 155.047 82.9883C155.047 84.37 154.882 85.6077 154.553 86.6706C154.231 87.73 153.799 88.6695 153.257 89.458C152.725 90.25 152.105 90.9289 151.405 91.4809C150.727 92.0192 150.024 92.4615 149.324 92.8043C147.675 93.6066 145.789 94.066 143.715 94.162H138.723C138.751 94.5735 138.819 94.9369 138.912 95.2523C139.052 95.7289 139.237 96.1335 139.464 96.4557C139.532 96.5517 139.601 96.6443 139.673 96.7335C139.844 96.9392 140.026 97.114 140.218 97.258C140.496 97.4706 140.797 97.642 141.113 97.7757C141.747 98.0432 142.474 98.1803 143.273 98.1803C143.396 98.1803 143.523 98.1769 143.65 98.17H143.674C143.732 98.17 143.787 98.17 143.845 98.1666C148.333 97.9472 152.033 96.4283 154.947 93.61C157.968 90.73 159.48 87.1849 159.48 82.9677C159.48 82.8066 159.48 82.6489 159.473 82.4877C159.233 78.9735 157.813 75.9323 155.249 73.4363C155.029 73.2237 154.803 73.0146 154.573 72.8157C153.226 71.6535 151.7 70.7552 150.031 70.138C148.063 69.418 145.813 69.0512 143.352 69.0512" fill="white"/>
<path d="M87.5346 80.8008C87.7232 80.5814 87.8878 80.3551 88.018 80.1151C88.1483 79.8785 88.2478 79.6145 88.3095 79.3334C88.378 79.0488 88.4089 78.7231 88.4089 78.3391C88.4089 78.0854 88.3712 77.818 88.2992 77.5265C88.2238 77.242 88.0969 76.9505 87.9118 76.6591C87.7266 76.3711 87.4832 76.0934 87.1815 75.8294C87.0512 75.7163 86.9038 75.6134 86.7495 75.514C86.9655 75.7265 87.1575 75.9391 87.298 76.162C87.4832 76.45 87.61 76.738 87.6855 77.026C87.7575 77.3208 87.7952 77.5883 87.7952 77.8385C87.7952 78.2157 87.7643 78.5517 87.6958 78.8328C87.634 79.1174 87.5312 79.378 87.4043 79.618C87.2706 79.8545 87.1095 80.0843 86.9175 80.3037C86.7289 80.5231 86.506 80.7528 86.2523 80.986C85.714 81.49 85.0592 81.874 84.274 82.1483C83.4958 82.426 82.5906 82.5631 81.5655 82.5631H77.722C76.8855 82.5837 76.1209 82.5254 75.4043 82.3917C75.0958 82.33 74.7906 82.2545 74.4855 82.1551C74.1803 82.0557 73.8889 81.9254 73.6112 81.7677C73.5426 81.73 73.4912 81.6717 73.4295 81.6305L73.4843 81.6923C73.7038 81.9185 73.9506 82.1071 74.2283 82.2717C74.5026 82.4294 74.7975 82.5563 75.1026 82.6591C75.4078 82.7551 75.7129 82.8374 76.0249 82.8957C76.738 83.0328 77.5026 83.0877 78.3392 83.0671H82.1826C83.2078 83.0671 84.1095 82.93 84.8912 82.6557C85.6729 82.3848 86.3312 81.9905 86.8695 81.4934C87.1232 81.2568 87.346 81.0271 87.538 80.8111M85.57 69.4523C86.6638 69.7711 87.6272 70.1894 88.4706 70.7037C88.8169 70.9163 89.1289 71.146 89.4306 71.3791C88.9643 70.9574 88.4603 70.5597 87.8843 70.2031C87.0409 69.6888 86.074 69.2671 84.9838 68.9517C83.8935 68.6328 82.6763 68.4751 81.3289 68.4751H66.1918V101.537H66.1163V109.042C66.1163 109.042 66.226 108.994 66.706 108.751V102.037H66.7815V68.9757H81.9118C83.2626 68.9757 84.4798 69.1368 85.57 69.4557M97.9643 81.1574C97.9643 77.5231 99.2192 74.4305 101.732 71.866C103.008 70.5871 104.451 69.6305 106.066 68.9894C107.677 68.3448 109.484 68.0294 111.473 68.0294C113.461 68.0294 115.268 68.3448 116.876 68.9894C117.984 69.4317 119.002 70.0351 119.945 70.7757C118.844 69.7951 117.634 69.0237 116.287 68.4888C114.679 67.8477 112.879 67.5254 110.88 67.5254C108.881 67.5254 107.084 67.8477 105.473 68.4888C103.858 69.13 102.415 70.09 101.136 71.3654C98.626 73.9265 97.3678 77.0225 97.3678 80.6568V97.6694H97.9643V81.1574ZM120.236 82.3643C120.236 80.9894 120.041 78.7437 119.65 77.6603C119.256 76.5734 118.673 75.6237 117.898 74.8145C117.552 74.4511 117.181 74.1357 116.791 73.8545C116.955 73.9985 117.12 74.1494 117.281 74.3174C118.052 75.1265 118.639 76.0797 119.029 77.1597C119.42 78.2465 119.616 80.4923 119.616 81.8637V88.0454H105.432C105.432 88.7585 105.483 88.6523 105.651 89.1803C105.816 89.7083 106.039 90.1608 106.309 90.5448C106.58 90.922 106.889 91.2374 107.239 91.4843L107.359 91.5563C107.204 91.402 107.06 91.2305 106.923 91.0454C106.649 90.6648 106.433 90.2088 106.268 89.6808C106.1 89.1528 106.045 89.2591 106.045 88.546H120.233V82.3643H120.236ZM79.7312 88.7757C79.6352 88.7037 79.5118 88.6283 79.402 88.5563C79.6798 88.8305 79.9232 89.122 80.0912 89.4443L86.506 98.5745H86.7735L80.7118 89.9414C80.482 89.5128 80.1563 89.122 79.7346 88.7757M119.619 97.618H120.236V93.7677H119.619V97.618ZM294.987 66.0648C294.987 66.0648 294.888 66.3117 294.668 66.7745C294.449 67.2203 293.928 68.1425 290.808 68.1425C290.677 68.1425 290.557 68.1425 290.431 68.1425C290.173 68.1391 288.96 68.1323 287.187 68.1323V68.1563L267.212 68.2111C267.212 68.2111 261.541 67.9745 258.716 69.874C255.507 72.0305 253.279 75.0717 253.279 80.2214C253.279 84.7677 257.108 88.3334 260.115 90.6305C257.232 88.33 253.892 84.9425 253.892 80.7048C253.892 75.5483 256.124 72.5105 259.333 70.354C262.159 68.4511 267.829 68.6911 267.829 68.6911L287.804 68.6328V68.6088C289.573 68.6123 290.787 68.6123 291.048 68.6225C291.178 68.6225 291.298 68.626 291.418 68.626C294.541 68.626 295.069 67.6934 295.285 67.2511C295.368 67.066 295.429 66.9254 295.481 66.8157C295.237 66.4008 294.984 66.0614 294.984 66.0614M278.852 72.85V97.6111C279.061 97.6145 279.267 97.6111 279.466 97.5974V72.85H278.852ZM95.7118 103.035C94.9506 103.035 94.1998 103.035 93.4592 103.035C85.4123 103.035 78.6683 103.21 74.0912 105.421C73.7895 105.569 73.3712 105.727 73.0318 105.857V106.573C73.0318 106.573 74.098 106.21 74.7015 105.919C79.2786 103.711 86.0226 103.532 94.0695 103.532C94.81 103.532 95.5609 103.532 96.322 103.536H253.152C253.213 103.255 253.272 103.039 253.272 103.039H98.0912C97.2889 103.039 96.4935 103.039 95.7152 103.039M262.265 92.8214C265.477 95.4683 269.544 100.025 268.419 104.273C267.161 109.018 263.163 110.503 259.539 110.228C258.271 110.132 257.17 109.717 256.285 109.1C257.245 110.002 258.593 110.629 260.201 110.753C263.825 111.027 267.823 109.546 269.077 104.797C270.281 100.258 265.543 95.3517 262.268 92.8214M275.787 103.039C275.701 103.039 275.623 103.035 275.544 103.035C275.52 103.279 275.489 103.491 275.489 103.491C275.489 103.491 275.859 103.536 276.315 103.536C276.727 103.536 281.863 103.45 283.453 102.699C283.464 102.641 283.484 102.596 283.491 102.538C283.556 102.031 283.58 101.269 283.58 101.269C283.58 101.269 283.58 101.479 283.351 101.876C282.744 102.922 276.243 103.039 275.787 103.039ZM266.89 87.1677C266.54 86.89 266.149 86.5985 265.745 86.29C265.327 85.9711 264.884 85.6454 264.445 85.2923C265.087 85.8271 265.745 86.3277 266.362 86.794C266.753 87.0854 267.127 87.3665 267.466 87.6374C267.26 87.466 267.065 87.3083 266.89 87.1677ZM245.653 82.4465C245.653 81.1608 244.951 77.098 244.176 76.3437C243.829 76.0043 243.456 75.7025 243.068 75.4385C243.236 75.5791 243.404 75.7197 243.559 75.874C244.333 76.6351 245.036 80.6945 245.036 81.9803V87.754H230.856C230.856 88.4225 230.935 89.002 231.099 89.4991C231.267 89.9928 231.487 90.418 231.754 90.7745C232.032 91.1277 232.34 91.4191 232.69 91.6523L232.807 91.7208C232.652 91.5768 232.508 91.4157 232.375 91.2408C232.1 90.8843 231.881 90.4591 231.716 89.9688C231.555 89.4751 231.469 88.8923 231.469 88.2237H245.65V82.45L245.653 82.4465ZM219.682 80.482H204.058C204.037 81.3083 204.192 82.0385 204.517 82.6831C204.655 82.9608 204.836 83.2283 205.063 83.4923C205.244 83.7014 205.474 83.8865 205.731 84.0614C205.676 84.0065 205.611 83.9585 205.563 83.9003C205.34 83.6397 205.155 83.3688 205.018 83.0911C204.692 82.45 204.538 81.7163 204.555 80.89H219.679V80.4854L219.682 80.482ZM130.707 68.8934H143.407C145.858 68.8934 148.063 69.2568 150.02 69.9803C151.399 70.4877 152.664 71.1974 153.819 72.0785C152.503 70.9643 151.049 70.0934 149.427 69.4968C147.466 68.7734 145.261 68.41 142.81 68.41H130.111V97.7791H130.707V68.8934ZM223.385 80.6157C223.385 77.1288 224.636 74.1528 227.156 71.6911C228.432 70.4637 229.872 69.5483 231.49 68.9311C233.105 68.3105 234.905 68.002 236.897 68.002C238.889 68.002 240.696 68.3105 242.304 68.9311C243.408 69.3528 244.426 69.9357 245.369 70.6454C244.265 69.7025 243.051 68.962 241.711 68.4511C240.109 67.8305 238.303 67.522 236.304 67.522C234.305 67.522 232.512 67.8305 230.897 68.4511C229.282 69.0648 227.839 69.9871 226.563 71.2111C224.047 73.6728 222.792 76.6454 222.792 80.1323V97.5528H223.388V80.6157H223.385ZM245.036 97.5528H245.653V92.53H245.036V97.5528ZM210.665 92.242C209.705 92.9791 208.656 93.5311 207.514 93.8945C206.369 94.258 205.131 94.4363 203.797 94.4363C202.351 94.4363 201.003 94.1791 199.759 93.6648C198.936 93.3254 198.147 92.8625 197.393 92.2865C198.329 93.0991 199.32 93.73 200.376 94.1654C201.617 94.6797 202.964 94.9334 204.415 94.9334C205.752 94.9334 206.986 94.7551 208.131 94.3917C209.273 94.0317 210.322 93.4797 211.282 92.7425C213.175 91.3231 214.433 89.314 215.064 86.7083H214.289C213.624 89.0603 212.431 90.9185 210.665 92.242ZM170.348 80.5574V81.0545H180.85C180.86 80.89 180.877 80.7323 180.877 80.5574H170.352H170.348ZM152.945 78.1094C152.331 77.3791 151.635 76.7243 150.86 76.1517L150.771 76.0968C151.333 76.5665 151.865 77.0603 152.331 77.6157C152.592 77.9277 152.845 78.274 153.096 78.6511C153.343 79.0351 153.569 79.4465 153.761 79.8854C153.956 80.3311 154.114 80.7974 154.234 81.298C154.351 81.7951 154.409 82.3163 154.409 82.858C154.409 84.1643 154.258 85.3094 153.953 86.2968C153.641 87.2843 153.243 88.1448 152.739 88.8717C152.235 89.5985 151.663 90.2123 151.021 90.7128C150.377 91.2134 149.719 91.6248 149.053 91.9403C147.483 92.6945 145.697 93.1197 143.695 93.2123H138.072C138.072 93.9323 138.151 94.5563 138.312 95.0808C138.473 95.6088 138.682 96.0683 138.956 96.442C139.217 96.8191 139.515 97.1277 139.848 97.3745C139.92 97.4225 139.992 97.4671 140.064 97.5117C139.885 97.3368 139.721 97.1517 139.57 96.9323C139.306 96.5551 139.09 96.0991 138.932 95.5711C138.768 95.0431 138.685 94.4191 138.685 93.7025H144.312C146.314 93.6065 148.1 93.1814 149.674 92.4305C150.339 92.1117 150.994 91.7037 151.642 91.2031C152.287 90.7025 152.859 90.082 153.36 89.3585C153.86 88.6317 154.268 87.7711 154.57 86.7871C154.879 85.7963 155.033 84.6545 155.033 83.3448C155.033 82.8031 154.971 82.282 154.851 81.7883C154.738 81.2911 154.58 80.818 154.381 80.3757C154.186 79.9334 153.963 79.522 153.713 79.1414C153.466 78.7643 153.209 78.4145 152.952 78.1025M170.348 94.0145H182.372C183.027 94.0145 183.6 94.09 184.097 94.2408C184.591 94.3917 185.019 94.594 185.379 94.8443L185.407 94.8683C185.225 94.6797 185.033 94.5048 184.803 94.3471C184.443 94.0934 184.018 93.8911 183.521 93.7403C183.027 93.5894 182.448 93.514 181.793 93.514H170.352V94.0145H170.348ZM164.506 68.89H186.569C186.579 68.7288 186.596 68.5814 186.596 68.41H163.923V97.5425H164.503V68.89H164.506ZM193.567 95.3688C193.303 95.1425 193.039 94.9231 192.781 94.6831C189.713 91.6968 188.184 88.0248 188.184 83.6637C188.184 79.3025 189.74 75.6305 192.85 72.6545C195.915 69.6751 199.666 68.1871 204.116 68.1871C206.585 68.1871 208.906 68.6945 211.08 69.7025C212.071 70.1723 213 70.7585 213.874 71.4477C213.761 71.3483 213.651 71.2317 213.535 71.1357C212.595 70.3677 211.584 69.7265 210.5 69.2157C208.323 68.2111 206.009 67.7003 203.544 67.7003C199.09 67.7003 195.332 69.1917 192.274 72.1711C189.164 75.1471 187.608 78.8157 187.608 83.1768C187.608 87.538 189.144 91.2065 192.205 94.1928C192.648 94.618 193.107 95.0054 193.573 95.3723" fill="#1D1D1B"/>
</g>
</g>
<defs>
<filter id="filter0_d_589_6418" x="4.57764e-05" y="4.57764e-05" width="361.81" height="178.909" filterUnits="userSpaceOnUse" color-interpolation-filters="sRGB">
<feFlood flood-opacity="0" result="BackgroundImageFix"/>
<feColorMatrix in="SourceAlpha" type="matrix" values="0 0 0 0 0 0 0 0 0 0 0 0 0 0 0 0 0 0 127 0" result="hardAlpha"/>
<feOffset/>
<feGaussianBlur stdDeviation="32.7273"/>
<feComposite in2="hardAlpha" operator="out"/>
<feColorMatrix type="matrix" values="0 0 0 0 0 0 0 0 0 0 0 0 0 0 0 0 0 0 1 0"/>
<feBlend mode="normal" in2="BackgroundImageFix" result="effect1_dropShadow_589_6418"/>
<feBlend mode="normal" in="SourceGraphic" in2="effect1_dropShadow_589_6418" result="shape"/>
</filter>
<clipPath id="clip0_589_6418">
<rect width="230.901" height="48" fill="white" transform="translate(65.4546 65.4546)"/>
</clipPath>
</defs>
</svg>
